<svg xmlns="http://www.w3.org/2000/svg" xmlns:xlink="http://www.w3.org/1999/xlink" width="500" zoomAndPan="magnify" viewBox="0 0 375 374.999991" height="500" preserveAspectRatio="xMidYMid meet" version="1.0"><defs><g/><clipPath id="32cafe9114"><path d="M 66.394531 156.007812 L 107 156.007812 L 107 219 L 66.394531 219 Z M 66.394531 156.007812 " clip-rule="nonzero"/></clipPath><clipPath id="4de7a00067"><path d="M 66.394531 156.007812 L 107 156.007812 L 107 204 L 66.394531 204 Z M 66.394531 156.007812 " clip-rule="nonzero"/></clipPath><clipPath id="f7f21b07c9"><path d="M 121 156.007812 L 133.894531 156.007812 L 133.894531 169 L 121 169 Z M 121 156.007812 " clip-rule="nonzero"/></clipPath><clipPath id="80312d006c"><path d="M 92 156.007812 L 133.894531 156.007812 L 133.894531 219 L 92 219 Z M 92 156.007812 " clip-rule="nonzero"/></clipPath><clipPath id="3beab9217c"><path d="M 92 156.007812 L 133.894531 156.007812 L 133.894531 204 L 92 204 Z M 92 156.007812 " clip-rule="nonzero"/></clipPath></defs><rect x="-37.5" width="450" fill="#ffffff" y="-37.499999" height="449.999989" fill-opacity="1"/><rect x="-37.5" width="450" fill="#ffffff" y="-37.499999" height="449.999989" fill-opacity="1"/><rect x="-37.5" width="450" fill="#ffffff" y="-37.499999" height="449.999989" fill-opacity="1"/><g clip-path="url(#32cafe9114)"><path fill="#72ffff" d="M 82.449219 159.164062 L 104.144531 180.960938 C 104.582031 181.398438 104.972656 181.875 105.316406 182.390625 C 105.660156 182.90625 105.949219 183.453125 106.183594 184.023438 C 106.421875 184.597656 106.601562 185.1875 106.71875 185.796875 C 106.839844 186.40625 106.902344 187.019531 106.902344 187.640625 C 106.902344 188.261719 106.839844 188.875 106.71875 189.484375 C 106.601562 190.09375 106.421875 190.683594 106.183594 191.257812 C 105.949219 191.828125 105.660156 192.375 105.316406 192.890625 C 104.972656 193.40625 104.582031 193.882812 104.144531 194.320312 L 82.449219 216.117188 C 76.523438 222.070312 66.390625 217.851562 66.394531 209.429688 L 66.394531 165.839844 C 66.390625 157.429688 76.523438 153.210938 82.449219 159.164062 Z M 82.449219 159.164062 " fill-opacity="1" fill-rule="nonzero"/></g><g clip-path="url(#4de7a00067)"><path fill="#00d7ff" d="M 82.449219 159.164062 C 76.558594 153.246094 66.539062 157.382812 66.398438 165.699219 C 66.398438 165.699219 100.539062 198.148438 95.109375 203.4375 L 104.164062 194.339844 C 104.601562 193.902344 104.992188 193.425781 105.335938 192.910156 C 105.679688 192.394531 105.96875 191.847656 106.203125 191.277344 C 106.441406 190.703125 106.617188 190.113281 106.738281 189.503906 C 106.859375 188.894531 106.921875 188.28125 106.921875 187.660156 C 106.921875 187.039062 106.859375 186.425781 106.738281 185.816406 C 106.617188 185.207031 106.441406 184.617188 106.203125 184.042969 C 105.96875 183.46875 105.679688 182.925781 105.335938 182.410156 C 104.992188 181.894531 104.601562 181.417969 104.164062 180.976562 Z M 82.449219 159.164062 " fill-opacity="1" fill-rule="nonzero"/></g><g clip-path="url(#f7f21b07c9)"><path fill="#590696" d="M 133.894531 162.253906 C 133.894531 162.660156 133.855469 163.0625 133.777344 163.457031 C 133.699219 163.855469 133.582031 164.242188 133.425781 164.617188 C 133.273438 164.992188 133.082031 165.347656 132.859375 165.683594 C 132.632812 166.023438 132.378906 166.335938 132.09375 166.621094 C 131.808594 166.90625 131.496094 167.164062 131.164062 167.390625 C 130.828125 167.613281 130.472656 167.804688 130.097656 167.960938 C 129.726562 168.113281 129.34375 168.230469 128.945312 168.3125 C 128.550781 168.390625 128.152344 168.429688 127.746094 168.429688 C 127.34375 168.429688 126.945312 168.390625 126.546875 168.3125 C 126.152344 168.230469 125.765625 168.113281 125.394531 167.960938 C 125.023438 167.804688 124.667969 167.613281 124.332031 167.390625 C 123.996094 167.164062 123.6875 166.90625 123.398438 166.621094 C 123.113281 166.335938 122.859375 166.023438 122.636719 165.683594 C 122.410156 165.347656 122.222656 164.992188 122.066406 164.617188 C 121.914062 164.242188 121.796875 163.855469 121.71875 163.457031 C 121.640625 163.0625 121.601562 162.660156 121.601562 162.253906 C 121.601562 161.847656 121.640625 161.445312 121.71875 161.050781 C 121.796875 160.652344 121.914062 160.265625 122.066406 159.890625 C 122.222656 159.515625 122.410156 159.160156 122.636719 158.824219 C 122.859375 158.484375 123.113281 158.175781 123.398438 157.886719 C 123.6875 157.601562 123.996094 157.34375 124.332031 157.121094 C 124.667969 156.894531 125.023438 156.703125 125.394531 156.550781 C 125.765625 156.394531 126.152344 156.277344 126.546875 156.199219 C 126.945312 156.117188 127.34375 156.078125 127.746094 156.078125 C 128.152344 156.078125 128.550781 156.117188 128.945312 156.199219 C 129.34375 156.277344 129.726562 156.394531 130.097656 156.550781 C 130.472656 156.703125 130.828125 156.894531 131.164062 157.121094 C 131.496094 157.34375 131.808594 157.601562 132.09375 157.886719 C 132.378906 158.175781 132.632812 158.484375 132.859375 158.824219 C 133.082031 159.160156 133.273438 159.515625 133.425781 159.890625 C 133.582031 160.265625 133.699219 160.652344 133.777344 161.050781 C 133.855469 161.445312 133.894531 161.847656 133.894531 162.253906 Z M 133.894531 162.253906 " fill-opacity="1" fill-rule="nonzero"/><path fill="#590696" d="M 133.894531 162.253906 C 133.894531 162.660156 133.855469 163.0625 133.777344 163.457031 C 133.699219 163.855469 133.582031 164.242188 133.425781 164.617188 C 133.273438 164.992188 133.082031 165.347656 132.859375 165.683594 C 132.632812 166.023438 132.378906 166.335938 132.09375 166.621094 C 131.808594 166.90625 131.496094 167.164062 131.164062 167.390625 C 130.828125 167.613281 130.472656 167.804688 130.097656 167.960938 C 129.726562 168.113281 129.34375 168.230469 128.945312 168.3125 C 128.550781 168.390625 128.152344 168.429688 127.746094 168.429688 C 127.34375 168.429688 126.945312 168.390625 126.546875 168.3125 C 126.152344 168.230469 125.765625 168.113281 125.394531 167.960938 C 125.023438 167.804688 124.667969 167.613281 124.332031 167.390625 C 123.996094 167.164062 123.6875 166.90625 123.398438 166.621094 C 123.113281 166.335938 122.859375 166.023438 122.636719 165.683594 C 122.410156 165.347656 122.222656 164.992188 122.066406 164.617188 C 121.914062 164.242188 121.796875 163.855469 121.71875 163.457031 C 121.640625 163.0625 121.601562 162.660156 121.601562 162.253906 C 121.601562 161.847656 121.640625 161.445312 121.71875 161.050781 C 121.796875 160.652344 121.914062 160.265625 122.066406 159.890625 C 122.222656 159.515625 122.410156 159.160156 122.636719 158.824219 C 122.859375 158.484375 123.113281 158.175781 123.398438 157.886719 C 123.6875 157.601562 123.996094 157.34375 124.332031 157.121094 C 124.667969 156.894531 125.023438 156.703125 125.394531 156.550781 C 125.765625 156.394531 126.152344 156.277344 126.546875 156.199219 C 126.945312 156.117188 127.34375 156.078125 127.746094 156.078125 C 128.152344 156.078125 128.550781 156.117188 128.945312 156.199219 C 129.34375 156.277344 129.726562 156.394531 130.097656 156.550781 C 130.472656 156.703125 130.828125 156.894531 131.164062 157.121094 C 131.496094 157.34375 131.808594 157.601562 132.09375 157.886719 C 132.378906 158.175781 132.632812 158.484375 132.859375 158.824219 C 133.082031 159.160156 133.273438 159.515625 133.425781 159.890625 C 133.582031 160.265625 133.699219 160.652344 133.777344 161.050781 C 133.855469 161.445312 133.894531 161.847656 133.894531 162.253906 Z M 133.894531 162.253906 " fill-opacity="1" fill-rule="nonzero"/></g><g clip-path="url(#80312d006c)"><path fill="#0096ff" d="M 131.136719 181.011719 L 109.441406 159.21875 C 103.617188 153.363281 88.089844 160.152344 93.402344 165.488281 L 109.007812 181.167969 C 109.441406 181.605469 109.832031 182.082031 110.175781 182.597656 C 110.519531 183.113281 110.808594 183.65625 111.046875 184.230469 C 111.28125 184.804688 111.460938 185.394531 111.582031 186.003906 C 111.703125 186.613281 111.761719 187.226562 111.761719 187.847656 C 111.761719 188.464844 111.703125 189.082031 111.582031 189.6875 C 111.460938 190.296875 111.28125 190.886719 111.046875 191.460938 C 110.808594 192.035156 110.519531 192.578125 110.175781 193.09375 C 109.832031 193.609375 109.441406 194.085938 109.007812 194.523438 L 93.414062 210.195312 C 88.660156 214.964844 103.671875 222 109.441406 216.207031 L 131.136719 194.414062 C 131.574219 193.976562 131.96875 193.496094 132.3125 192.980469 C 132.660156 192.460938 132.953125 191.917969 133.1875 191.339844 C 133.425781 190.765625 133.605469 190.175781 133.730469 189.5625 C 133.851562 188.953125 133.910156 188.335938 133.910156 187.714844 C 133.910156 187.089844 133.851562 186.472656 133.730469 185.863281 C 133.605469 185.253906 133.425781 184.660156 133.1875 184.085938 C 132.953125 183.507812 132.660156 182.964844 132.3125 182.445312 C 131.96875 181.929688 131.574219 181.453125 131.136719 181.011719 Z M 131.136719 181.011719 " fill-opacity="1" fill-rule="nonzero"/></g><g clip-path="url(#3beab9217c)"><path fill="#5800ff" d="M 131.136719 181.011719 L 109.441406 159.21875 C 103.617188 153.363281 88.089844 160.152344 93.402344 165.488281 L 109.007812 181.167969 C 109.757812 181.921875 110.367188 182.78125 110.828125 183.746094 C 111.289062 184.710938 111.578125 185.722656 111.695312 186.785156 C 117.074219 193.125 121.542969 199.28125 122.472656 203.117188 L 131.152344 194.398438 C 131.589844 193.960938 131.980469 193.480469 132.324219 192.964844 C 132.667969 192.449219 132.957031 191.902344 133.195312 191.328125 C 133.433594 190.753906 133.609375 190.160156 133.730469 189.550781 C 133.851562 188.941406 133.910156 188.324219 133.910156 187.703125 C 133.910156 187.082031 133.847656 186.464844 133.726562 185.855469 C 133.605469 185.246094 133.425781 184.652344 133.1875 184.078125 C 132.949219 183.503906 132.65625 182.960938 132.3125 182.445312 C 131.96875 181.929688 131.574219 181.449219 131.136719 181.011719 Z M 131.136719 181.011719 " fill-opacity="1" fill-rule="nonzero"/></g><g fill="#231f20" fill-opacity="1"><g transform="translate(139.017271, 198.064571)"><g><path d="M 15.015625 -12.21875 L 10.84375 -7.859375 L 10.84375 0 L 3.6875 0 L 3.6875 -31.09375 L 10.84375 -31.09375 L 10.84375 -16.5625 L 24.609375 -31.09375 L 32.609375 -31.09375 L 19.71875 -17.234375 L 33.359375 0 L 24.96875 0 Z M 15.015625 -12.21875 "/></g></g></g><g fill="#231f20" fill-opacity="1"><g transform="translate(171.883614, 198.064571)"><g><path d="M 24.171875 -6.65625 L 9.734375 -6.65625 L 6.96875 0 L -0.40625 0 L 13.453125 -31.09375 L 20.5625 -31.09375 L 34.46875 0 L 26.921875 0 Z M 21.90625 -12.125 L 16.96875 -24.03125 L 12.03125 -12.125 Z M 21.90625 -12.125 "/></g></g></g><g fill="#231f20" fill-opacity="1"><g transform="translate(205.904722, 198.064571)"><g><path d="M 33.578125 -31.09375 L 20.125 0 L 13.015625 0 L -0.40625 -31.09375 L 7.375 -31.09375 L 16.828125 -8.890625 L 26.4375 -31.09375 Z M 33.578125 -31.09375 "/></g></g></g><g fill="#231f20" fill-opacity="1"><g transform="translate(239.037552, 198.064571)"><g><path d="M 33.578125 -31.09375 L 20.125 0 L 13.015625 0 L -0.40625 -31.09375 L 7.375 -31.09375 L 16.828125 -8.890625 L 26.4375 -31.09375 Z M 33.578125 -31.09375 "/></g></g></g><g fill="#231f20" fill-opacity="1"><g transform="translate(272.170382, 198.064571)"><g><path d="M 24.171875 -6.65625 L 9.734375 -6.65625 L 6.96875 0 L -0.40625 0 L 13.453125 -31.09375 L 20.5625 -31.09375 L 34.46875 0 L 26.921875 0 Z M 21.90625 -12.125 L 16.96875 -24.03125 L 12.03125 -12.125 Z M 21.90625 -12.125 "/></g></g></g><g fill="#231f20" fill-opacity="1"><g transform="translate(306.19149, 198.064571)"><g><path d="M 18.609375 -11.015625 L 18.609375 0 L 11.421875 0 L 11.421875 -11.109375 L -0.625 -31.09375 L 7.015625 -31.09375 L 15.328125 -17.28125 L 23.625 -31.09375 L 30.703125 -31.09375 Z M 18.609375 -11.015625 "/></g></g></g><g fill="#231f20" fill-opacity="1"><g transform="translate(149.024475, 216.442735)"><g><path d="M 4.984375 -8.234375 C 6.003906 -8.109375 6.828125 -7.710938 7.453125 -7.046875 C 8.078125 -6.390625 8.390625 -5.457031 8.390625 -4.25 C 8.390625 -3.03125 8.066406 -2.054688 7.421875 -1.328125 C 6.785156 -0.597656 5.960938 -0.171875 4.953125 -0.046875 C 4.671875 -0.015625 4.320312 0 3.90625 0 L 1.0625 0 L 1.0625 -8.28125 L 3.921875 -8.28125 C 4.347656 -8.28125 4.703125 -8.265625 4.984375 -8.234375 Z M 4.578125 -1.34375 C 5.210938 -1.425781 5.710938 -1.71875 6.078125 -2.21875 C 6.453125 -2.71875 6.640625 -3.382812 6.640625 -4.21875 C 6.640625 -5.019531 6.457031 -5.648438 6.09375 -6.109375 C 5.738281 -6.578125 5.25 -6.851562 4.625 -6.9375 C 4.375 -6.96875 4.078125 -6.984375 3.734375 -6.984375 L 2.71875 -6.984375 L 2.71875 -1.3125 L 3.703125 -1.3125 C 4.109375 -1.3125 4.398438 -1.320312 4.578125 -1.34375 Z M 4.578125 -1.34375 "/></g></g></g><g fill="#231f20" fill-opacity="1"><g transform="translate(166.148496, 216.442735)"><g><path d="M 6.546875 -3.328125 C 6.546875 -3.085938 6.539062 -2.898438 6.53125 -2.765625 L 1.984375 -2.765625 C 2.085938 -1.585938 2.582031 -1 3.46875 -1 C 3.832031 -1 4.128906 -1.09375 4.359375 -1.28125 C 4.597656 -1.476562 4.742188 -1.742188 4.796875 -2.078125 L 6.453125 -2.078125 C 6.296875 -1.347656 5.945312 -0.789062 5.40625 -0.40625 C 4.863281 -0.0195312 4.207031 0.171875 3.4375 0.171875 C 2.507812 0.171875 1.757812 -0.113281 1.1875 -0.6875 C 0.613281 -1.257812 0.328125 -2.085938 0.328125 -3.171875 C 0.328125 -4.160156 0.625 -4.96875 1.21875 -5.59375 C 1.8125 -6.226562 2.59375 -6.546875 3.5625 -6.546875 C 4.5 -6.546875 5.226562 -6.238281 5.75 -5.625 C 6.28125 -5.007812 6.546875 -4.242188 6.546875 -3.328125 Z M 3.484375 -5.390625 C 2.660156 -5.390625 2.179688 -4.875 2.046875 -3.84375 L 4.84375 -3.84375 C 4.738281 -4.875 4.285156 -5.390625 3.484375 -5.390625 Z M 3.484375 -5.390625 "/></g></g></g><g fill="#231f20" fill-opacity="1"><g transform="translate(181.436507, 216.442735)"><g><path d="M 2.359375 -8.8125 L 2.359375 -2.09375 C 2.359375 -1.8125 2.363281 -1.613281 2.375 -1.5 C 2.394531 -1.332031 2.457031 -1.21875 2.5625 -1.15625 C 2.664062 -1.101562 2.851562 -1.085938 3.125 -1.109375 L 3.125 0.03125 C 2.832031 0.0625 2.488281 0.078125 2.09375 0.078125 C 1.21875 0.078125 0.765625 -0.296875 0.734375 -1.046875 C 0.710938 -1.234375 0.703125 -1.566406 0.703125 -2.046875 L 0.703125 -8.8125 Z M 2.359375 -8.8125 "/></g></g></g><g fill="#231f20" fill-opacity="1"><g transform="translate(193.136508, 216.442735)"><g><path d="M 0.921875 -8.515625 C 1.085938 -8.679688 1.304688 -8.765625 1.578125 -8.765625 C 1.847656 -8.765625 2.066406 -8.679688 2.234375 -8.515625 C 2.410156 -8.347656 2.5 -8.140625 2.5 -7.890625 C 2.5 -7.617188 2.410156 -7.40625 2.234375 -7.25 C 2.066406 -7.09375 1.847656 -7.015625 1.578125 -7.015625 C 1.304688 -7.015625 1.085938 -7.09375 0.921875 -7.25 C 0.753906 -7.40625 0.671875 -7.617188 0.671875 -7.890625 C 0.671875 -8.140625 0.753906 -8.347656 0.921875 -8.515625 Z M 2.40625 0 L 0.75 0 L 0.75 -6.390625 L 2.40625 -6.390625 Z M 2.40625 0 "/></g></g></g><g fill="#231f20" fill-opacity="1"><g transform="translate(204.680517, 216.442735)"><g><path d="M 6.796875 -6.390625 L 4.328125 0 L 2.484375 0 L 0 -6.390625 L 1.84375 -6.390625 L 3.4375 -1.25 L 5.015625 -6.390625 Z M 6.796875 -6.390625 "/></g></g></g><g fill="#231f20" fill-opacity="1"><g transform="translate(219.824529, 216.442735)"><g><path d="M 6.546875 -3.328125 C 6.546875 -3.085938 6.539062 -2.898438 6.53125 -2.765625 L 1.984375 -2.765625 C 2.085938 -1.585938 2.582031 -1 3.46875 -1 C 3.832031 -1 4.128906 -1.09375 4.359375 -1.28125 C 4.597656 -1.476562 4.742188 -1.742188 4.796875 -2.078125 L 6.453125 -2.078125 C 6.296875 -1.347656 5.945312 -0.789062 5.40625 -0.40625 C 4.863281 -0.0195312 4.207031 0.171875 3.4375 0.171875 C 2.507812 0.171875 1.757812 -0.113281 1.1875 -0.6875 C 0.613281 -1.257812 0.328125 -2.085938 0.328125 -3.171875 C 0.328125 -4.160156 0.625 -4.96875 1.21875 -5.59375 C 1.8125 -6.226562 2.59375 -6.546875 3.5625 -6.546875 C 4.5 -6.546875 5.226562 -6.238281 5.75 -5.625 C 6.28125 -5.007812 6.546875 -4.242188 6.546875 -3.328125 Z M 3.484375 -5.390625 C 2.660156 -5.390625 2.179688 -4.875 2.046875 -3.84375 L 4.84375 -3.84375 C 4.738281 -4.875 4.285156 -5.390625 3.484375 -5.390625 Z M 3.484375 -5.390625 "/></g></g></g><g fill="#231f20" fill-opacity="1"><g transform="translate(235.112541, 216.442735)"><g><path d="M 4.015625 -6.546875 C 4.191406 -6.546875 4.34375 -6.523438 4.46875 -6.484375 L 4.46875 -5.15625 C 3.769531 -5.207031 3.25 -5.054688 2.90625 -4.703125 C 2.570312 -4.359375 2.40625 -3.765625 2.40625 -2.921875 L 2.40625 0 L 0.75 0 L 0.75 -6.390625 L 2.40625 -6.390625 L 2.40625 -5.21875 L 2.921875 -6.109375 C 3.234375 -6.398438 3.597656 -6.546875 4.015625 -6.546875 Z M 4.015625 -6.546875 "/></g></g></g><g fill="#231f20" fill-opacity="1"><g transform="translate(248.024549, 216.442735)"><g><path d="M 6.796875 -6.390625 L 4.234375 0.234375 C 3.898438 1.097656 3.535156 1.691406 3.140625 2.015625 C 2.753906 2.347656 2.234375 2.515625 1.578125 2.515625 C 1.296875 2.515625 1.046875 2.5 0.828125 2.46875 L 0.828125 1.328125 C 0.941406 1.347656 1.101562 1.359375 1.3125 1.359375 C 1.882812 1.359375 2.285156 1.070312 2.515625 0.5 L 2.609375 0.296875 L 0 -6.390625 L 1.84375 -6.390625 L 3.4375 -1.265625 L 4.984375 -6.390625 Z M 6.796875 -6.390625 "/></g></g></g><g fill="#231f20" fill-opacity="1"><g transform="translate(263.156567, 216.442735)"><g/></g></g><g fill="#231f20" fill-opacity="1"><g transform="translate(273.83657, 216.442735)"><g><path d="M 7.546875 -6.984375 L 4.734375 -6.984375 L 4.734375 0 L 3.078125 0 L 3.078125 -6.984375 L 0.28125 -6.984375 L 0.28125 -8.28125 L 7.546875 -8.28125 Z M 7.546875 -6.984375 "/></g></g></g><g fill="#231f20" fill-opacity="1"><g transform="translate(289.664583, 216.442735)"><g><path d="M 6.546875 -3.328125 C 6.546875 -3.085938 6.539062 -2.898438 6.53125 -2.765625 L 1.984375 -2.765625 C 2.085938 -1.585938 2.582031 -1 3.46875 -1 C 3.832031 -1 4.128906 -1.09375 4.359375 -1.28125 C 4.597656 -1.476562 4.742188 -1.742188 4.796875 -2.078125 L 6.453125 -2.078125 C 6.296875 -1.347656 5.945312 -0.789062 5.40625 -0.40625 C 4.863281 -0.0195312 4.207031 0.171875 3.4375 0.171875 C 2.507812 0.171875 1.757812 -0.113281 1.1875 -0.6875 C 0.613281 -1.257812 0.328125 -2.085938 0.328125 -3.171875 C 0.328125 -4.160156 0.625 -4.96875 1.21875 -5.59375 C 1.8125 -6.226562 2.59375 -6.546875 3.5625 -6.546875 C 4.5 -6.546875 5.226562 -6.238281 5.75 -5.625 C 6.28125 -5.007812 6.546875 -4.242188 6.546875 -3.328125 Z M 3.484375 -5.390625 C 2.660156 -5.390625 2.179688 -4.875 2.046875 -3.84375 L 4.84375 -3.84375 C 4.738281 -4.875 4.285156 -5.390625 3.484375 -5.390625 Z M 3.484375 -5.390625 "/></g></g></g><g fill="#231f20" fill-opacity="1"><g transform="translate(304.952596, 216.442735)"><g><path d="M 3.515625 -6.546875 C 4.359375 -6.546875 5.039062 -6.316406 5.5625 -5.859375 C 6.082031 -5.398438 6.375 -4.804688 6.4375 -4.078125 L 4.796875 -4.078125 C 4.648438 -4.953125 4.210938 -5.390625 3.484375 -5.390625 C 3.035156 -5.390625 2.679688 -5.207031 2.421875 -4.84375 C 2.171875 -4.488281 2.046875 -3.957031 2.046875 -3.25 C 2.046875 -2.488281 2.171875 -1.921875 2.421875 -1.546875 C 2.679688 -1.179688 3.03125 -1 3.46875 -1 C 3.789062 -1 4.066406 -1.101562 4.296875 -1.3125 C 4.523438 -1.519531 4.679688 -1.816406 4.765625 -2.203125 L 6.421875 -2.203125 C 6.285156 -1.441406 5.945312 -0.851562 5.40625 -0.4375 C 4.863281 -0.03125 4.1875 0.171875 3.375 0.171875 C 2.46875 0.171875 1.734375 -0.113281 1.171875 -0.6875 C 0.609375 -1.257812 0.328125 -2.078125 0.328125 -3.140625 C 0.328125 -4.203125 0.628906 -5.035156 1.234375 -5.640625 C 1.835938 -6.242188 2.597656 -6.546875 3.515625 -6.546875 Z M 3.515625 -6.546875 "/></g></g></g><g fill="#231f20" fill-opacity="1"><g transform="translate(320.036606, 216.442735)"><g><path d="M 6.703125 -4.765625 C 6.734375 -4.472656 6.75 -4.082031 6.75 -3.59375 L 6.75 0 L 5.09375 0 L 5.09375 -3.375 C 5.09375 -3.75 5.085938 -4.046875 5.078125 -4.265625 C 5.015625 -5.015625 4.609375 -5.390625 3.859375 -5.390625 C 3.421875 -5.378906 3.066406 -5.171875 2.796875 -4.765625 C 2.535156 -4.367188 2.40625 -3.753906 2.40625 -2.921875 L 2.40625 0 L 0.75 0 L 0.75 -8.875 L 2.40625 -8.875 L 2.40625 -5.359375 L 2.90625 -6.109375 C 3.320312 -6.398438 3.832031 -6.546875 4.4375 -6.546875 C 5.113281 -6.546875 5.644531 -6.390625 6.03125 -6.078125 C 6.414062 -5.765625 6.640625 -5.328125 6.703125 -4.765625 Z M 6.703125 -4.765625 "/></g></g></g></svg>