<svg width="1024" height="242" viewBox="0 0 1024 242" fill="none" xmlns="http://www.w3.org/2000/svg">
<path d="M91.4699 0V203.482C79.2817 202.501 68.1125 199.401 57.9231 194.377C47.812 200.421 36.6428 203.482 24.3763 203.482C16.2639 203.482 7.13261 202.187 0 199.126C8.11237 187.941 15.2842 175.069 18.341 160.784C7.1718 143.438 0.0391903 123.031 0.0391903 101.721C0.0783805 48.8593 40.7186 5.06252 91.4699 0Z" fill="#192C6A"/>
<path d="M203.24 101.761C203.24 154.662 162.6 198.459 111.849 203.521V183.193C152.489 178.13 182.979 143.556 182.979 101.839C182.979 60.1224 151.509 25.5481 111.849 20.4856V0C162.6 5.06252 203.24 48.8592 203.24 101.761Z" fill="#24D05E"/>
<path d="M368.897 71.9742C364.312 62.4771 357.885 54.9814 349.576 49.5264C341.307 43.993 331.588 41.2459 320.301 41.2459C308.975 41.2459 299.413 44.0322 291.692 49.5264C290.164 50.6253 288.675 51.8026 287.264 53.0977V44.5424H263.75V217.021H290.595V157.919C291.065 158.273 291.536 158.626 292.045 158.979C299.922 164.512 309.681 167.26 321.32 167.26C332.293 167.26 341.856 164.473 350.007 158.979C358.159 153.446 364.508 145.911 369.015 136.413C373.522 126.916 375.755 116.163 375.755 104.233C375.755 92.185 373.482 81.3929 368.897 71.9742ZM344.286 124.169C342.169 130.056 338.838 134.765 334.331 138.219C329.824 141.672 324.142 143.399 317.205 143.399C310.073 143.399 304.272 141.79 299.844 138.533C295.494 135.197 292.319 130.605 290.242 124.719C288.244 118.832 287.264 112.003 287.264 104.272C287.264 96.4627 288.244 89.6342 290.242 83.826C292.319 77.9393 295.455 73.3478 299.726 70.1297C303.998 66.7939 309.524 65.1457 316.304 65.1457C323.436 65.1457 329.315 66.9117 333.979 70.4437C338.603 73.8972 342.052 78.6065 344.246 84.6109C346.441 90.4975 347.578 97.0514 347.578 104.272C347.578 111.572 346.48 118.204 344.286 124.169Z" fill="#192C6A"/>
<path d="M488.31 76.4088C487.878 71.9742 486.585 67.6573 484.43 63.4582C480.511 55.5701 474.515 49.8796 466.441 46.4261C458.407 42.9726 449.119 41.2459 438.499 41.2459C424.43 41.2459 413.26 44.3069 404.913 50.429C396.683 56.5512 391.079 64.6355 388.139 74.7605L412.437 82.374C414.436 76.2518 417.924 71.935 422.94 69.4233C427.957 66.9117 433.13 65.6559 438.499 65.6559C447.395 65.6559 453.744 67.6181 457.506 71.5033C460.641 74.7606 462.444 79.5091 462.914 85.749C458.094 86.4946 453.391 87.1618 448.806 87.8289C441.281 88.8493 434.305 89.9874 427.839 91.2432C421.412 92.499 415.847 93.9118 411.066 95.4424C404.717 97.5616 399.583 100.348 395.586 103.723C391.627 107.059 388.649 111.022 386.768 115.653C384.847 120.206 383.907 125.386 383.907 131.115C383.907 137.669 385.396 143.674 388.414 149.129C391.51 154.584 396.017 158.979 402.013 162.276C407.97 165.494 415.259 167.142 423.881 167.142C434.619 167.142 443.554 165.14 450.687 161.177C456.252 158.037 461.229 153.563 465.697 147.755V163.845H488.976V90.5368C488.976 85.5135 488.78 80.7257 488.31 76.4088ZM462.248 114.672C462.091 119.028 461.347 122.874 459.936 126.288C459.034 128.996 457.31 131.94 454.763 135.001C452.255 138.101 448.884 140.73 444.612 142.85C440.341 144.969 435.168 146.068 429.132 146.068C424.939 146.068 421.412 145.4 418.551 144.066C415.769 142.732 413.613 140.966 412.163 138.768C410.674 136.492 409.929 133.863 409.929 130.919C409.929 128.329 410.478 126.092 411.575 124.169C412.751 122.246 414.397 120.559 416.552 119.107C418.669 117.615 421.294 116.32 424.39 115.221C427.565 114.201 431.209 113.259 435.324 112.474C439.439 111.572 444.377 110.669 450.099 109.688C453.783 109.06 457.898 108.393 462.522 107.647C462.483 109.688 462.405 112.003 462.248 114.672Z" fill="#192C6A"/>
<path d="M609.329 44.5424L542.862 217.021H517.898L537.493 163.139L489.289 44.5424H516.997L550.308 130.017L582.719 44.5424H609.329Z" fill="#192C6A"/>
<path d="M788.31 84.6894V163.963H761.7V91.4394C761.7 83.2766 759.662 76.8798 755.626 72.3274C751.589 67.6966 746.102 65.3419 739.166 65.3419C734.894 65.3419 731.053 66.323 727.683 68.3245C724.313 70.2475 721.609 73.1123 719.61 76.9582C717.611 80.7257 716.631 85.2388 716.631 90.4583V164.002H690.139V91.7926C690.139 83.4728 688.101 76.9975 684.064 72.3274C680.028 67.6966 674.502 65.3419 667.487 65.3419C660.707 65.3419 655.26 67.6573 651.145 72.3274C647.108 76.9582 645.07 83.0019 645.07 90.4583V164.002H618.264V44.5816H641.778V57.5323C645.188 53.2154 649.381 49.7227 654.358 47.0148C660.903 43.4043 668.232 41.599 676.344 41.599C685.24 41.599 692.686 43.522 698.643 47.3287C703.973 50.6645 708.127 55.0599 711.027 60.5933C714.789 54.7852 719.688 50.2328 725.802 46.897C732.268 43.365 739.479 41.599 747.435 41.599C760.603 41.599 770.714 45.5627 777.69 53.5293C784.783 61.3782 788.31 71.778 788.31 84.6894Z" fill="#192C6A"/>
<path d="M913.797 111.65C914.816 97.3653 913.248 84.9249 909.055 74.4074C904.862 63.8899 898.435 55.727 889.734 49.9974C881.113 44.1499 870.649 41.2459 858.265 41.2459C846.547 41.2459 836.24 43.9145 827.344 49.2125C818.447 54.5105 811.472 62.0061 806.455 71.6603C801.439 81.2359 798.931 92.5382 798.931 105.607C798.931 117.694 801.478 128.368 806.534 137.669C811.707 146.97 818.839 154.23 827.971 159.45C837.102 164.709 847.683 167.299 859.754 167.299C871.237 167.299 881.74 164.316 891.224 158.351C900.786 152.386 907.84 144.027 912.425 133.274L886.168 125.307C883.582 130.841 879.898 135.079 875.116 138.023C870.414 140.887 864.77 142.339 858.226 142.339C848.075 142.339 840.355 139.004 835.025 132.371C830.871 127.152 828.323 120.245 827.461 111.689H913.797V111.65ZM828.127 91.5572C829.342 84.6501 831.655 79.0774 835.064 74.7605C840.355 67.9713 848.467 64.5963 859.362 64.5963C869.003 64.5963 876.057 67.5788 880.564 73.544C883.738 77.7824 885.815 83.7868 886.795 91.5572H828.127Z" fill="#192C6A"/>
<path d="M974.855 167.299C960.12 167.299 948.167 163.963 938.957 157.331C929.748 150.698 924.77 144.851 922.772 132.803L949.303 125.15C950.714 131.037 953.81 135.707 958.592 139.082C963.373 142.457 969.408 144.184 976.697 144.184C983.085 144.184 988.023 142.928 991.511 140.416C995.038 137.826 996.802 134.334 996.802 129.899C996.802 127.191 996.136 124.993 994.803 123.384C993.549 121.697 990.767 120.049 986.417 118.518C982.066 116.987 975.404 115.025 966.43 112.671C956.436 110.002 948.48 107.176 942.563 104.155C936.684 101.054 932.452 97.4046 929.865 93.2054C927.279 89.0063 925.985 83.9045 925.985 77.9394C925.985 70.4829 927.945 64.0076 931.825 58.4741C935.744 52.9407 941.191 48.7023 948.167 45.759C955.143 42.7371 963.412 41.2066 972.896 41.2066C982.184 41.2066 990.375 42.6586 997.507 45.5235C1004.72 48.3883 1010.52 52.509 1014.95 57.807C1019.38 63.105 1022.08 69.3448 1023.14 76.4873L995.979 81.3536C995.313 76.2519 993.001 72.2489 989.003 69.3056C985.084 66.3623 979.872 64.714 973.327 64.3216C967.057 63.9684 962.04 64.9102 958.2 67.1864C954.359 69.3841 952.439 72.5236 952.439 76.5658C952.439 78.842 953.222 80.8042 954.751 82.4132C956.279 84.0222 959.375 85.6705 964.039 87.2795C968.742 88.8885 975.757 90.89 985.006 93.2446C994.49 95.6778 1002.09 98.4642 1007.74 101.643C1013.5 104.743 1017.61 108.471 1020.12 112.828C1022.71 117.184 1024 122.442 1024 128.643C1024 140.652 1019.61 150.11 1010.87 156.938C1002.29 163.845 990.257 167.299 974.855 167.299Z" fill="#192C6A"/>
<path d="M591.576 232.523C589.93 232.523 588.44 232.209 587.069 231.581C585.736 230.953 584.639 230.051 583.855 228.834C583.071 227.617 582.679 226.205 582.679 224.478C582.679 222.987 582.954 221.77 583.542 220.867C584.129 219.926 584.913 219.18 585.893 218.67C586.873 218.12 587.97 217.728 589.146 217.492C590.361 217.218 591.536 217.021 592.751 216.864C594.319 216.668 595.612 216.511 596.592 216.394C597.572 216.276 598.316 216.08 598.747 215.844C599.218 215.569 599.453 215.138 599.453 214.471V214.353C599.453 212.665 598.983 211.37 598.081 210.468C597.18 209.526 595.808 209.094 593.966 209.094C592.046 209.094 590.557 209.526 589.459 210.35C588.362 211.174 587.617 212.077 587.186 213.018L583.385 211.645C584.051 210.075 584.952 208.819 586.089 207.956C587.226 207.053 588.48 206.425 589.812 206.072C591.184 205.719 592.516 205.523 593.809 205.523C594.632 205.523 595.612 205.641 596.67 205.837C597.768 206.033 598.826 206.425 599.845 207.053C600.864 207.681 601.726 208.584 602.392 209.8C603.058 211.017 603.411 212.665 603.411 214.745V231.895H599.414V228.363H599.218C598.943 228.912 598.512 229.54 597.846 230.168C597.219 230.796 596.357 231.346 595.338 231.817C594.358 232.287 593.065 232.523 591.576 232.523ZM592.163 228.912C593.731 228.912 595.064 228.599 596.161 227.971C597.258 227.343 598.081 226.558 598.63 225.577C599.179 224.596 599.492 223.575 599.492 222.476V218.827C599.335 219.023 598.943 219.219 598.356 219.376C597.807 219.533 597.141 219.69 596.396 219.808C595.651 219.925 594.946 220.004 594.241 220.122C593.535 220.2 592.986 220.279 592.555 220.318C591.497 220.436 590.557 220.671 589.655 220.985C588.754 221.26 588.048 221.731 587.5 222.319C586.951 222.908 586.677 223.693 586.677 224.713C586.677 226.087 587.186 227.146 588.205 227.853C589.263 228.559 590.596 228.912 592.163 228.912Z" fill="#192C6A"/>
<path d="M647.265 202.815C646.285 201.049 644.874 199.675 643.032 198.655C641.19 197.635 638.957 197.125 636.292 197.125H622.614V231.856H629.943V220.593H636.096C638.761 220.593 641.034 220.082 642.915 219.101C644.796 218.12 646.246 216.747 647.226 214.981C648.245 213.215 648.715 211.174 648.715 208.859C648.715 206.622 648.245 204.581 647.265 202.815ZM640.485 211.959C640.054 212.822 639.348 213.489 638.408 214C637.507 214.471 636.331 214.745 634.92 214.745H629.943V203.168H634.881C636.292 203.168 637.467 203.404 638.408 203.914C639.348 204.385 640.015 205.052 640.485 205.915C640.955 206.779 641.19 207.799 641.19 208.937C641.19 210.075 640.955 211.095 640.485 211.959Z" fill="#192C6A"/>
<path d="M659.61 232.405C657.964 232.405 656.474 232.13 655.181 231.542C653.888 230.953 652.869 230.09 652.085 228.952C651.341 227.814 650.949 226.362 650.949 224.635C650.949 223.183 651.223 221.966 651.732 220.985C652.281 220.004 652.987 219.219 653.888 218.591C654.789 218.003 655.847 217.532 657.023 217.218C658.199 216.904 659.414 216.707 660.707 216.59C662.235 216.433 663.45 216.276 664.352 216.158C665.292 216.001 665.959 215.805 666.35 215.53C666.782 215.255 666.977 214.824 666.977 214.274V214.157C666.977 213.097 666.625 212.234 665.959 211.645C665.292 211.056 664.352 210.782 663.098 210.782C661.804 210.782 660.746 211.056 660.002 211.645C659.218 212.194 658.708 212.94 658.473 213.764L651.811 213.215C652.164 211.645 652.83 210.271 653.81 209.094C654.789 207.917 656.083 207.053 657.65 206.425C659.218 205.798 661.06 205.484 663.137 205.484C664.587 205.484 665.959 205.641 667.291 205.994C668.623 206.347 669.799 206.857 670.818 207.564C671.876 208.27 672.66 209.173 673.287 210.311C673.875 211.409 674.189 212.744 674.189 214.314V231.895H667.33V228.285H667.134C666.703 229.109 666.154 229.815 665.449 230.443C664.744 231.071 663.921 231.542 662.941 231.895C662.04 232.209 660.903 232.405 659.61 232.405ZM661.648 227.421C662.706 227.421 663.646 227.225 664.469 226.793C665.292 226.362 665.919 225.773 666.39 225.066C666.86 224.36 667.095 223.536 667.095 222.594V219.847C666.86 220.004 666.546 220.122 666.155 220.239C665.763 220.357 665.331 220.475 664.861 220.553C664.391 220.632 663.881 220.71 663.411 220.789C662.941 220.867 662.471 220.907 662.079 220.985C661.217 221.103 660.472 221.299 659.845 221.574C659.218 221.848 658.708 222.202 658.356 222.673C658.003 223.144 657.846 223.693 657.846 224.36C657.846 225.341 658.199 226.087 658.904 226.636C659.649 227.146 660.55 227.421 661.648 227.421Z" fill="#192C6A"/>
<path d="M682.889 241.667C681.987 241.667 681.125 241.588 680.302 241.431C679.518 241.314 678.852 241.117 678.343 240.921L679.949 235.545C680.812 235.819 681.556 235.937 682.223 235.976C682.928 236.016 683.516 235.859 683.986 235.505C684.496 235.152 684.887 234.603 685.24 233.779L685.671 232.68L676.344 205.876H683.947L689.316 225.027H689.59L695.038 205.876H702.68L692.569 234.76C692.098 236.173 691.432 237.389 690.57 238.41C689.747 239.469 688.689 240.254 687.435 240.843C686.22 241.392 684.691 241.667 682.889 241.667Z" fill="#192C6A"/>
<path d="M703.111 203.207V197.164H731.602V203.207H720.982V231.895H713.731V203.207H703.111Z" fill="#192C6A"/>
<path d="M739.558 232.405C737.912 232.405 736.422 232.13 735.129 231.542C733.836 230.953 732.817 230.09 732.033 228.952C731.289 227.814 730.897 226.362 730.897 224.635C730.897 223.183 731.171 221.966 731.68 220.985C732.229 220.004 732.935 219.219 733.836 218.591C734.737 218.003 735.795 217.532 736.971 217.218C738.147 216.904 739.362 216.707 740.655 216.59C742.183 216.433 743.398 216.276 744.3 216.158C745.24 216.001 745.907 215.805 746.298 215.53C746.73 215.255 746.925 214.824 746.925 214.274V214.157C746.925 213.097 746.573 212.234 745.907 211.645C745.24 211.056 744.3 210.782 743.046 210.782C741.752 210.782 740.733 211.056 739.95 211.645C739.166 212.194 738.656 212.94 738.421 213.764L731.759 213.215C732.112 211.645 732.778 210.271 733.758 209.094C734.737 207.917 736.031 207.053 737.598 206.425C739.166 205.798 741.008 205.484 743.085 205.484C744.535 205.484 745.906 205.641 747.239 205.994C748.571 206.347 749.747 206.857 750.766 207.564C751.824 208.27 752.608 209.173 753.235 210.311C753.823 211.409 754.136 212.744 754.136 214.314V231.895H747.278V228.285H747.082C746.651 229.109 746.102 229.815 745.397 230.443C744.692 231.071 743.869 231.542 742.889 231.895C741.987 232.209 740.851 232.405 739.558 232.405ZM741.635 227.421C742.693 227.421 743.633 227.225 744.456 226.793C745.279 226.362 745.906 225.773 746.377 225.066C746.847 224.36 747.082 223.536 747.082 222.594V219.847C746.847 220.004 746.534 220.122 746.142 220.239C745.75 220.357 745.319 220.475 744.848 220.553C744.378 220.632 743.869 220.71 743.398 220.789C742.928 220.867 742.458 220.907 742.066 220.985C741.204 221.103 740.498 221.299 739.832 221.574C739.205 221.848 738.696 222.202 738.343 222.673C737.99 223.144 737.833 223.693 737.833 224.36C737.833 225.341 738.186 226.087 738.891 226.636C739.597 227.146 740.498 227.421 741.635 227.421Z" fill="#192C6A"/>
<path d="M759.466 231.895V197.164H766.677V210.232H766.912C767.226 209.526 767.696 208.819 768.284 208.113C768.911 207.367 769.695 206.779 770.675 206.268C771.654 205.758 772.869 205.523 774.319 205.523C776.201 205.523 777.964 206.033 779.571 207.014C781.178 207.995 782.471 209.486 783.411 211.488C784.352 213.45 784.862 215.962 784.862 218.944C784.862 221.848 784.391 224.321 783.451 226.322C782.51 228.324 781.256 229.815 779.649 230.835C778.042 231.856 776.279 232.366 774.28 232.366C772.869 232.366 771.694 232.13 770.714 231.66C769.734 231.189 768.95 230.6 768.323 229.894C767.696 229.187 767.226 228.481 766.912 227.735H766.599V231.895H759.466ZM766.521 218.866C766.521 220.396 766.716 221.77 767.148 222.908C767.579 224.046 768.206 224.949 769.029 225.616C769.852 226.244 770.831 226.558 772.007 226.558C773.183 226.558 774.163 226.244 774.986 225.577C775.809 224.91 776.396 224.007 776.828 222.869C777.259 221.691 777.455 220.357 777.455 218.866C777.455 217.375 777.259 216.04 776.828 214.902C776.396 213.764 775.809 212.862 774.986 212.234C774.163 211.606 773.183 211.252 771.968 211.252C770.792 211.252 769.812 211.566 768.989 212.194C768.206 212.822 767.579 213.686 767.148 214.824C766.756 215.962 766.521 217.335 766.521 218.866Z" fill="#192C6A"/>
<path d="M810.845 213.293L804.221 213.686C804.104 213.136 803.869 212.626 803.477 212.155C803.085 211.684 802.615 211.331 801.988 211.056C801.4 210.782 800.655 210.625 799.832 210.625C798.696 210.625 797.755 210.86 797.01 211.331C796.227 211.802 795.874 212.43 795.874 213.215C795.874 213.843 796.109 214.353 796.619 214.784C797.128 215.216 797.951 215.569 799.166 215.805L803.869 216.747C806.416 217.257 808.297 218.12 809.512 219.258C810.766 220.396 811.393 221.927 811.393 223.811C811.393 225.537 810.884 227.029 809.904 228.324C808.924 229.619 807.553 230.6 805.789 231.346C804.065 232.052 802.066 232.405 799.793 232.405C796.344 232.405 793.601 231.699 791.563 230.247C789.525 228.795 788.349 226.833 787.997 224.36L795.09 223.968C795.286 225.027 795.835 225.812 796.658 226.362C797.481 226.911 798.539 227.186 799.832 227.186C801.086 227.186 802.105 226.95 802.889 226.44C803.673 225.93 804.065 225.302 804.065 224.517C804.065 223.85 803.79 223.34 803.242 222.908C802.693 222.476 801.87 222.162 800.734 221.927L796.227 221.024C793.679 220.514 791.798 219.651 790.544 218.395C789.329 217.139 788.702 215.53 788.702 213.607C788.702 211.92 789.172 210.507 790.074 209.29C790.975 208.074 792.268 207.132 793.914 206.504C795.56 205.837 797.52 205.523 799.754 205.523C803.046 205.523 805.632 206.229 807.513 207.603C809.395 208.976 810.531 210.899 810.845 213.293Z" fill="#192C6A"/>
<path d="M836.632 232.444C834.202 232.444 832.086 231.856 830.322 230.718C828.559 229.58 827.187 227.971 826.246 225.969C825.306 223.928 824.835 221.613 824.835 219.023C824.835 216.393 825.306 214.039 826.286 211.998C827.265 209.957 828.637 208.388 830.4 207.25C832.164 206.111 834.202 205.523 836.553 205.523C838.395 205.523 840.041 205.876 841.491 206.543C842.941 207.21 844.156 208.152 845.097 209.408C846.037 210.664 846.625 212.037 846.86 213.686H842.863C842.549 212.508 841.883 211.449 840.825 210.546C839.767 209.604 838.395 209.173 836.632 209.173C835.064 209.173 833.692 209.565 832.517 210.389C831.341 211.174 830.44 212.312 829.773 213.803C829.146 215.255 828.794 216.982 828.794 218.944C828.794 220.946 829.107 222.712 829.734 224.203C830.361 225.694 831.263 226.872 832.438 227.696C833.614 228.52 834.986 228.952 836.553 228.952C837.611 228.952 838.552 228.755 839.375 228.402C840.237 228.049 840.943 227.539 841.53 226.833C842.118 226.165 842.549 225.341 842.785 224.399H846.782C846.547 225.93 845.998 227.303 845.097 228.559C844.235 229.776 843.059 230.757 841.609 231.463C840.198 232.091 838.552 232.444 836.632 232.444Z" fill="#192C6A"/>
<path d="M862.772 232.444C860.42 232.444 858.343 231.895 856.579 230.757C854.816 229.619 853.444 228.088 852.465 226.048C851.485 224.046 850.975 221.691 850.975 218.984C850.975 216.276 851.485 213.882 852.465 211.88C853.444 209.84 854.855 208.27 856.579 207.171C858.343 206.033 860.42 205.484 862.772 205.484C865.123 205.484 867.161 206.033 868.924 207.171C870.688 208.309 872.06 209.879 873.039 211.88C874.019 213.921 874.529 216.276 874.529 218.984C874.529 221.691 874.019 224.046 873.039 226.048C872.06 228.049 870.688 229.619 868.924 230.757C867.2 231.895 865.123 232.444 862.772 232.444ZM862.772 228.834C864.574 228.834 866.024 228.363 867.161 227.46C868.297 226.558 869.16 225.341 869.708 223.85C870.257 222.359 870.531 220.75 870.531 218.984C870.531 217.257 870.257 215.609 869.708 214.117C869.16 212.626 868.297 211.409 867.161 210.468C866.024 209.526 864.535 209.094 862.772 209.094C860.969 209.094 859.519 209.565 858.382 210.468C857.246 211.409 856.384 212.626 855.835 214.117C855.286 215.609 855.012 217.257 855.012 218.984C855.012 220.71 855.286 222.359 855.835 223.85C856.384 225.341 857.246 226.558 858.382 227.46C859.519 228.402 861.008 228.834 862.772 228.834Z" fill="#192C6A"/>
<path d="M880.211 231.895V205.837H884.091V209.918H884.444C884.992 208.545 885.855 207.446 887.069 206.661C888.284 205.876 889.734 205.484 891.42 205.484C893.144 205.484 894.555 205.876 895.691 206.661C896.828 207.446 897.729 208.505 898.395 209.918H898.67C899.336 208.584 900.316 207.485 901.687 206.7C903.02 205.915 904.627 205.484 906.469 205.484C908.781 205.484 910.701 206.229 912.19 207.681C913.68 209.133 914.424 211.37 914.424 214.431V231.856H910.427V214.431C910.427 212.508 909.917 211.135 908.859 210.311C907.801 209.486 906.586 209.055 905.136 209.055C903.294 209.055 901.883 209.604 900.904 210.703C899.885 211.802 899.414 213.175 899.414 214.863V231.817H895.339V213.96C895.339 212.469 894.868 211.292 893.889 210.389C892.948 209.486 891.694 209.016 890.165 209.016C889.107 209.016 888.167 209.29 887.265 209.84C886.364 210.389 885.659 211.174 885.11 212.155C884.561 213.136 884.287 214.235 884.287 215.53V231.817H880.211V231.895Z" fill="#192C6A"/>
<path d="M921.204 241.667V205.837H925.084V209.957H925.554C925.829 209.486 926.26 208.937 926.769 208.231C927.318 207.524 928.062 206.896 929.042 206.347C930.022 205.798 931.394 205.484 933.079 205.484C935.273 205.484 937.194 206.033 938.879 207.132C940.564 208.231 941.857 209.8 942.798 211.802C943.738 213.803 944.209 216.197 944.209 218.944C944.209 221.691 943.738 224.085 942.798 226.126C941.857 228.128 940.564 229.697 938.918 230.796C937.272 231.895 935.352 232.444 933.157 232.444C931.472 232.444 930.139 232.17 929.16 231.62C928.141 231.071 927.396 230.404 926.848 229.697C926.299 228.991 925.907 228.363 925.593 227.892H925.241V241.667H921.204ZM925.123 218.866C925.123 220.828 925.397 222.555 925.985 224.085C926.573 225.577 927.396 226.754 928.493 227.578C929.591 228.402 930.962 228.834 932.569 228.834C934.254 228.834 935.626 228.402 936.763 227.5C937.899 226.597 938.722 225.42 939.31 223.889C939.898 222.359 940.172 220.671 940.172 218.827C940.172 216.982 939.898 215.334 939.31 213.882C938.761 212.391 937.899 211.213 936.802 210.389C935.665 209.526 934.294 209.094 932.569 209.094C930.962 209.094 929.591 209.526 928.454 210.35C927.357 211.174 926.495 212.312 925.946 213.764C925.397 215.216 925.123 216.943 925.123 218.866Z" fill="#192C6A"/>
<path d="M957.455 232.523C955.809 232.523 954.32 232.209 952.948 231.581C951.616 230.953 950.518 230.051 949.735 228.834C948.951 227.617 948.559 226.205 948.559 224.478C948.559 222.987 948.833 221.77 949.421 220.867C950.009 219.926 950.793 219.18 951.772 218.67C952.752 218.12 953.85 217.728 955.025 217.492C956.24 217.218 957.416 217.021 958.631 216.864C960.198 216.668 961.492 216.511 962.471 216.394C963.451 216.276 964.196 216.08 964.627 215.844C965.097 215.569 965.332 215.138 965.332 214.471V214.353C965.332 212.665 964.862 211.37 963.961 210.468C963.059 209.526 961.687 209.094 959.846 209.094C957.925 209.094 956.436 209.526 955.339 210.35C954.241 211.174 953.497 212.077 953.066 213.018L949.264 211.645C949.93 210.075 950.832 208.819 951.968 207.956C953.105 207.053 954.359 206.425 955.691 206.072C957.063 205.719 958.396 205.523 959.689 205.523C960.512 205.523 961.492 205.641 962.55 205.837C963.647 206.033 964.705 206.425 965.724 207.053C966.743 207.681 967.605 208.584 968.271 209.8C968.938 211.017 969.29 212.665 969.29 214.745V231.895H965.293V228.363H965.097C964.823 228.912 964.392 229.54 963.725 230.168C963.098 230.796 962.236 231.346 961.217 231.817C960.237 232.287 958.944 232.523 957.455 232.523ZM958.043 228.912C959.61 228.912 960.943 228.599 962.04 227.971C963.138 227.343 963.961 226.558 964.509 225.577C965.058 224.596 965.371 223.575 965.371 222.476V218.827C965.215 219.023 964.823 219.219 964.235 219.376C963.686 219.533 963.02 219.69 962.275 219.808C961.531 219.925 960.825 220.004 960.12 220.122C959.414 220.2 958.866 220.279 958.435 220.318C957.377 220.436 956.436 220.671 955.535 220.985C954.633 221.26 953.928 221.731 953.379 222.319C952.831 222.908 952.556 223.693 952.556 224.713C952.556 226.087 953.066 227.146 954.085 227.853C955.143 228.559 956.436 228.912 958.043 228.912Z" fill="#192C6A"/>
<path d="M980.185 216.237V231.895H976.188V205.837H980.068V209.918H980.42C981.048 208.584 981.949 207.524 983.203 206.739C984.457 205.915 986.064 205.523 988.023 205.523C989.787 205.523 991.315 205.876 992.648 206.622C993.98 207.328 994.999 208.427 995.744 209.879C996.488 211.331 996.841 213.175 996.841 215.373V231.934H992.844V215.648C992.844 213.607 992.295 211.998 991.237 210.86C990.179 209.722 988.729 209.133 986.848 209.133C985.554 209.133 984.418 209.408 983.438 209.957C982.458 210.507 981.675 211.331 981.087 212.391C980.46 213.411 980.185 214.706 980.185 216.237Z" fill="#192C6A"/>
<path d="M1005.27 241.667C1004.6 241.667 1003.97 241.628 1003.46 241.51C1002.92 241.392 1002.56 241.314 1002.37 241.196L1003.39 237.664C1004.37 237.899 1005.23 238.017 1005.97 237.939C1006.72 237.86 1007.38 237.546 1007.97 236.918C1008.56 236.33 1009.11 235.388 1009.58 234.053L1010.32 232.013L1000.68 205.837H1005.03L1012.2 226.597H1012.48L1019.65 205.837H1024L1012.95 235.702C1012.44 237.036 1011.85 238.174 1011.11 239.037C1010.36 239.94 1009.5 240.607 1008.56 241.039C1007.54 241.471 1006.44 241.667 1005.27 241.667Z" fill="#192C6A"/>
</svg>
